<?xml version="1.0" encoding="utf-8" standalone="no"?>
<!DOCTYPE svg PUBLIC "-//W3C//DTD SVG 1.1//EN"
  "http://www.w3.org/Graphics/SVG/1.1/DTD/svg11.dtd">
<!-- Created with matplotlib (http://matplotlib.org/) -->
<svg height="288pt" version="1.1" viewBox="0 0 432 288" width="432pt" xmlns="http://www.w3.org/2000/svg" xmlns:xlink="http://www.w3.org/1999/xlink">
 <defs>
  <style type="text/css">
*{stroke-linecap:butt;stroke-linejoin:round;}
  </style>
 </defs>
 <g id="figure_1">
  <g id="patch_1">
   <path d="M 0 288 
L 432 288 
L 432 0 
L 0 0 
z
" style="fill:#ffffff;"/>
  </g>
  <g id="axes_1">
   <g id="patch_2">
    <path d="M 54 252 
L 388.8 252 
L 388.8 34.56 
L 54 34.56 
z
" style="fill:#ffffff;"/>
   </g>
   <g id="matplotlib.axis_1">
    <g id="xtick_1">
     <g id="line2d_1">
      <defs>
       <path d="M 0 0 
L 0 3.5 
" id="mf41da0e187" style="stroke:#000000;stroke-width:0.8;"/>
      </defs>
      <g>
       <use style="stroke:#000000;stroke-width:0.8;" x="54" xlink:href="#mf41da0e187" y="252"/>
      </g>
     </g>
     <g id="text_1">
      <!-- 0 -->
      <defs>
       <path d="M 31.78125 66.40625 
Q 24.171875 66.40625 20.328125 58.90625 
Q 16.5 51.421875 16.5 36.375 
Q 16.5 21.390625 20.328125 13.890625 
Q 24.171875 6.390625 31.78125 6.390625 
Q 39.453125 6.390625 43.28125 13.890625 
Q 47.125 21.390625 47.125 36.375 
Q 47.125 51.421875 43.28125 58.90625 
Q 39.453125 66.40625 31.78125 66.40625 
z
M 31.78125 74.21875 
Q 44.046875 74.21875 50.515625 64.515625 
Q 56.984375 54.828125 56.984375 36.375 
Q 56.984375 17.96875 50.515625 8.265625 
Q 44.046875 -1.421875 31.78125 -1.421875 
Q 19.53125 -1.421875 13.0625 8.265625 
Q 6.59375 17.96875 6.59375 36.375 
Q 6.59375 54.828125 13.0625 64.515625 
Q 19.53125 74.21875 31.78125 74.21875 
z
" id="DejaVuSans-30"/>
      </defs>
      <g transform="translate(50.81875 266.598437)scale(0.1 -0.1)">
       <use xlink:href="#DejaVuSans-30"/>
      </g>
     </g>
    </g>
    <g id="xtick_2">
     <g id="line2d_2">
      <g>
       <use style="stroke:#000000;stroke-width:0.8;" x="109.8" xlink:href="#mf41da0e187" y="252"/>
      </g>
     </g>
     <g id="text_2">
      <!-- 2 -->
      <defs>
       <path d="M 19.1875 8.296875 
L 53.609375 8.296875 
L 53.609375 0 
L 7.328125 0 
L 7.328125 8.296875 
Q 12.9375 14.109375 22.625 23.890625 
Q 32.328125 33.6875 34.8125 36.53125 
Q 39.546875 41.84375 41.421875 45.53125 
Q 43.3125 49.21875 43.3125 52.78125 
Q 43.3125 58.59375 39.234375 62.25 
Q 35.15625 65.921875 28.609375 65.921875 
Q 23.96875 65.921875 18.8125 64.3125 
Q 13.671875 62.703125 7.8125 59.421875 
L 7.8125 69.390625 
Q 13.765625 71.78125 18.9375 73 
Q 24.125 74.21875 28.421875 74.21875 
Q 39.75 74.21875 46.484375 68.546875 
Q 53.21875 62.890625 53.21875 53.421875 
Q 53.21875 48.921875 51.53125 44.890625 
Q 49.859375 40.875 45.40625 35.40625 
Q 44.1875 33.984375 37.640625 27.21875 
Q 31.109375 20.453125 19.1875 8.296875 
z
" id="DejaVuSans-32"/>
      </defs>
      <g transform="translate(106.61875 266.598437)scale(0.1 -0.1)">
       <use xlink:href="#DejaVuSans-32"/>
      </g>
     </g>
    </g>
    <g id="xtick_3">
     <g id="line2d_3">
      <g>
       <use style="stroke:#000000;stroke-width:0.8;" x="165.6" xlink:href="#mf41da0e187" y="252"/>
      </g>
     </g>
     <g id="text_3">
      <!-- 4 -->
      <defs>
       <path d="M 37.796875 64.3125 
L 12.890625 25.390625 
L 37.796875 25.390625 
z
M 35.203125 72.90625 
L 47.609375 72.90625 
L 47.609375 25.390625 
L 58.015625 25.390625 
L 58.015625 17.1875 
L 47.609375 17.1875 
L 47.609375 0 
L 37.796875 0 
L 37.796875 17.1875 
L 4.890625 17.1875 
L 4.890625 26.703125 
z
" id="DejaVuSans-34"/>
      </defs>
      <g transform="translate(162.41875 266.598437)scale(0.1 -0.1)">
       <use xlink:href="#DejaVuSans-34"/>
      </g>
     </g>
    </g>
    <g id="xtick_4">
     <g id="line2d_4">
      <g>
       <use style="stroke:#000000;stroke-width:0.8;" x="221.4" xlink:href="#mf41da0e187" y="252"/>
      </g>
     </g>
     <g id="text_4">
      <!-- 6 -->
      <defs>
       <path d="M 33.015625 40.375 
Q 26.375 40.375 22.484375 35.828125 
Q 18.609375 31.296875 18.609375 23.390625 
Q 18.609375 15.53125 22.484375 10.953125 
Q 26.375 6.390625 33.015625 6.390625 
Q 39.65625 6.390625 43.53125 10.953125 
Q 47.40625 15.53125 47.40625 23.390625 
Q 47.40625 31.296875 43.53125 35.828125 
Q 39.65625 40.375 33.015625 40.375 
z
M 52.59375 71.296875 
L 52.59375 62.3125 
Q 48.875 64.0625 45.09375 64.984375 
Q 41.3125 65.921875 37.59375 65.921875 
Q 27.828125 65.921875 22.671875 59.328125 
Q 17.53125 52.734375 16.796875 39.40625 
Q 19.671875 43.65625 24.015625 45.921875 
Q 28.375 48.1875 33.59375 48.1875 
Q 44.578125 48.1875 50.953125 41.515625 
Q 57.328125 34.859375 57.328125 23.390625 
Q 57.328125 12.15625 50.6875 5.359375 
Q 44.046875 -1.421875 33.015625 -1.421875 
Q 20.359375 -1.421875 13.671875 8.265625 
Q 6.984375 17.96875 6.984375 36.375 
Q 6.984375 53.65625 15.1875 63.9375 
Q 23.390625 74.21875 37.203125 74.21875 
Q 40.921875 74.21875 44.703125 73.484375 
Q 48.484375 72.75 52.59375 71.296875 
z
" id="DejaVuSans-36"/>
      </defs>
      <g transform="translate(218.21875 266.598437)scale(0.1 -0.1)">
       <use xlink:href="#DejaVuSans-36"/>
      </g>
     </g>
    </g>
    <g id="xtick_5">
     <g id="line2d_5">
      <g>
       <use style="stroke:#000000;stroke-width:0.8;" x="277.2" xlink:href="#mf41da0e187" y="252"/>
      </g>
     </g>
     <g id="text_5">
      <!-- 8 -->
      <defs>
       <path d="M 31.78125 34.625 
Q 24.75 34.625 20.71875 30.859375 
Q 16.703125 27.09375 16.703125 20.515625 
Q 16.703125 13.921875 20.71875 10.15625 
Q 24.75 6.390625 31.78125 6.390625 
Q 38.8125 6.390625 42.859375 10.171875 
Q 46.921875 13.96875 46.921875 20.515625 
Q 46.921875 27.09375 42.890625 30.859375 
Q 38.875 34.625 31.78125 34.625 
z
M 21.921875 38.8125 
Q 15.578125 40.375 12.03125 44.71875 
Q 8.5 49.078125 8.5 55.328125 
Q 8.5 64.0625 14.71875 69.140625 
Q 20.953125 74.21875 31.78125 74.21875 
Q 42.671875 74.21875 48.875 69.140625 
Q 55.078125 64.0625 55.078125 55.328125 
Q 55.078125 49.078125 51.53125 44.71875 
Q 48 40.375 41.703125 38.8125 
Q 48.828125 37.15625 52.796875 32.3125 
Q 56.78125 27.484375 56.78125 20.515625 
Q 56.78125 9.90625 50.3125 4.234375 
Q 43.84375 -1.421875 31.78125 -1.421875 
Q 19.734375 -1.421875 13.25 4.234375 
Q 6.78125 9.90625 6.78125 20.515625 
Q 6.78125 27.484375 10.78125 32.3125 
Q 14.796875 37.15625 21.921875 38.8125 
z
M 18.3125 54.390625 
Q 18.3125 48.734375 21.84375 45.5625 
Q 25.390625 42.390625 31.78125 42.390625 
Q 38.140625 42.390625 41.71875 45.5625 
Q 45.3125 48.734375 45.3125 54.390625 
Q 45.3125 60.0625 41.71875 63.234375 
Q 38.140625 66.40625 31.78125 66.40625 
Q 25.390625 66.40625 21.84375 63.234375 
Q 18.3125 60.0625 18.3125 54.390625 
z
" id="DejaVuSans-38"/>
      </defs>
      <g transform="translate(274.01875 266.598437)scale(0.1 -0.1)">
       <use xlink:href="#DejaVuSans-38"/>
      </g>
     </g>
    </g>
    <g id="xtick_6">
     <g id="line2d_6">
      <g>
       <use style="stroke:#000000;stroke-width:0.8;" x="333" xlink:href="#mf41da0e187" y="252"/>
      </g>
     </g>
     <g id="text_6">
      <!-- 10 -->
      <defs>
       <path d="M 12.40625 8.296875 
L 28.515625 8.296875 
L 28.515625 63.921875 
L 10.984375 60.40625 
L 10.984375 69.390625 
L 28.421875 72.90625 
L 38.28125 72.90625 
L 38.28125 8.296875 
L 54.390625 8.296875 
L 54.390625 0 
L 12.40625 0 
z
" id="DejaVuSans-31"/>
      </defs>
      <g transform="translate(326.6375 266.598437)scale(0.1 -0.1)">
       <use xlink:href="#DejaVuSans-31"/>
       <use x="63.623047" xlink:href="#DejaVuSans-30"/>
      </g>
     </g>
    </g>
    <g id="xtick_7">
     <g id="line2d_7">
      <g>
       <use style="stroke:#000000;stroke-width:0.8;" x="388.8" xlink:href="#mf41da0e187" y="252"/>
      </g>
     </g>
     <g id="text_7">
      <!-- 12 -->
      <g transform="translate(382.4375 266.598437)scale(0.1 -0.1)">
       <use xlink:href="#DejaVuSans-31"/>
       <use x="63.623047" xlink:href="#DejaVuSans-32"/>
      </g>
     </g>
    </g>
    <g id="text_8">
     <!-- $R/a_0$ -->
     <defs>
      <path d="M 25.203125 64.796875 
L 20.21875 38.921875 
L 32.90625 38.921875 
Q 40.375 38.921875 44.984375 43.046875 
Q 49.609375 47.171875 49.609375 53.8125 
Q 49.609375 59.125 46.5 61.953125 
Q 43.40625 64.796875 37.59375 64.796875 
z
M 43.3125 35.015625 
Q 46.4375 34.28125 48.515625 31.390625 
Q 50.59375 28.515625 53.328125 19.921875 
L 59.515625 0 
L 49.125 0 
L 43.40625 18.703125 
Q 41.21875 25.921875 38.328125 28.359375 
Q 35.453125 30.8125 29.5 30.8125 
L 18.609375 30.8125 
L 12.59375 0 
L 2.6875 0 
L 16.890625 72.90625 
L 39.109375 72.90625 
Q 49.21875 72.90625 54.609375 68.328125 
Q 60.015625 63.765625 60.015625 55.171875 
Q 60.015625 47.5625 55.421875 41.984375 
Q 50.828125 36.421875 43.3125 35.015625 
z
" id="DejaVuSans-Oblique-52"/>
      <path d="M 25.390625 72.90625 
L 33.6875 72.90625 
L 8.296875 -9.28125 
L 0 -9.28125 
z
" id="DejaVuSans-2f"/>
      <path d="M 53.71875 31.203125 
L 47.609375 0 
L 38.625 0 
L 40.28125 8.296875 
Q 36.328125 3.421875 31.265625 1 
Q 26.21875 -1.421875 20.015625 -1.421875 
Q 13.03125 -1.421875 8.5625 2.84375 
Q 4.109375 7.125 4.109375 13.8125 
Q 4.109375 23.390625 11.75 28.953125 
Q 19.390625 34.515625 32.8125 34.515625 
L 45.3125 34.515625 
L 45.796875 36.921875 
Q 45.90625 37.3125 45.953125 37.765625 
Q 46 38.234375 46 39.203125 
Q 46 43.5625 42.453125 45.96875 
Q 38.921875 48.390625 32.515625 48.390625 
Q 28.125 48.390625 23.5 47.265625 
Q 18.890625 46.140625 14.015625 43.890625 
L 15.578125 52.203125 
Q 20.65625 54.109375 25.515625 55.046875 
Q 30.375 56 34.90625 56 
Q 44.578125 56 49.625 51.796875 
Q 54.6875 47.609375 54.6875 39.59375 
Q 54.6875 37.984375 54.4375 35.8125 
Q 54.203125 33.640625 53.71875 31.203125 
z
M 44 27.484375 
L 35.015625 27.484375 
Q 23.96875 27.484375 18.671875 24.53125 
Q 13.375 21.578125 13.375 15.375 
Q 13.375 11.078125 16.078125 8.640625 
Q 18.796875 6.203125 23.578125 6.203125 
Q 30.90625 6.203125 36.375 11.453125 
Q 41.84375 16.703125 43.609375 25.484375 
z
" id="DejaVuSans-Oblique-61"/>
     </defs>
     <g transform="translate(210.8 280.276563)scale(0.1 -0.1)">
      <use transform="translate(0 0.09375)" xlink:href="#DejaVuSans-Oblique-52"/>
      <use transform="translate(69.482422 0.09375)" xlink:href="#DejaVuSans-2f"/>
      <use transform="translate(103.173828 0.09375)" xlink:href="#DejaVuSans-Oblique-61"/>
      <use transform="translate(164.453125 -16.3125)scale(0.7)" xlink:href="#DejaVuSans-30"/>
     </g>
    </g>
   </g>
   <g id="matplotlib.axis_2">
    <g id="ytick_1">
     <g id="line2d_8">
      <defs>
       <path d="M 0 0 
L -3.5 0 
" id="m7432b2e4c5" style="stroke:#000000;stroke-width:0.8;"/>
      </defs>
      <g>
       <use style="stroke:#000000;stroke-width:0.8;" x="54" xlink:href="#m7432b2e4c5" y="241.923545"/>
      </g>
     </g>
     <g id="text_9">
      <!-- −1.175 -->
      <defs>
       <path d="M 10.59375 35.5 
L 73.1875 35.5 
L 73.1875 27.203125 
L 10.59375 27.203125 
z
" id="DejaVuSans-2212"/>
       <path d="M 10.6875 12.40625 
L 21 12.40625 
L 21 0 
L 10.6875 0 
z
" id="DejaVuSans-2e"/>
       <path d="M 8.203125 72.90625 
L 55.078125 72.90625 
L 55.078125 68.703125 
L 28.609375 0 
L 18.3125 0 
L 43.21875 64.59375 
L 8.203125 64.59375 
z
" id="DejaVuSans-37"/>
       <path d="M 10.796875 72.90625 
L 49.515625 72.90625 
L 49.515625 64.59375 
L 19.828125 64.59375 
L 19.828125 46.734375 
Q 21.96875 47.46875 24.109375 47.828125 
Q 26.265625 48.1875 28.421875 48.1875 
Q 40.625 48.1875 47.75 41.5 
Q 54.890625 34.8125 54.890625 23.390625 
Q 54.890625 11.625 47.5625 5.09375 
Q 40.234375 -1.421875 26.90625 -1.421875 
Q 22.3125 -1.421875 17.546875 -0.640625 
Q 12.796875 0.140625 7.71875 1.703125 
L 7.71875 11.625 
Q 12.109375 9.234375 16.796875 8.0625 
Q 21.484375 6.890625 26.703125 6.890625 
Q 35.15625 6.890625 40.078125 11.328125 
Q 45.015625 15.765625 45.015625 23.390625 
Q 45.015625 31 40.078125 35.4375 
Q 35.15625 39.890625 26.703125 39.890625 
Q 22.75 39.890625 18.8125 39.015625 
Q 14.890625 38.140625 10.796875 36.28125 
z
" id="DejaVuSans-35"/>
      </defs>
      <g transform="translate(9.992188 245.722764)scale(0.1 -0.1)">
       <use xlink:href="#DejaVuSans-2212"/>
       <use x="83.789062" xlink:href="#DejaVuSans-31"/>
       <use x="147.412109" xlink:href="#DejaVuSans-2e"/>
       <use x="179.199219" xlink:href="#DejaVuSans-31"/>
       <use x="242.822266" xlink:href="#DejaVuSans-37"/>
       <use x="306.445312" xlink:href="#DejaVuSans-35"/>
      </g>
     </g>
    </g>
    <g id="ytick_2">
     <g id="line2d_9">
      <g>
       <use style="stroke:#000000;stroke-width:0.8;" x="54" xlink:href="#m7432b2e4c5" y="215.338475"/>
      </g>
     </g>
     <g id="text_10">
      <!-- −1.150 -->
      <g transform="translate(9.992188 219.137694)scale(0.1 -0.1)">
       <use xlink:href="#DejaVuSans-2212"/>
       <use x="83.789062" xlink:href="#DejaVuSans-31"/>
       <use x="147.412109" xlink:href="#DejaVuSans-2e"/>
       <use x="179.199219" xlink:href="#DejaVuSans-31"/>
       <use x="242.822266" xlink:href="#DejaVuSans-35"/>
       <use x="306.445312" xlink:href="#DejaVuSans-30"/>
      </g>
     </g>
    </g>
    <g id="ytick_3">
     <g id="line2d_10">
      <g>
       <use style="stroke:#000000;stroke-width:0.8;" x="54" xlink:href="#m7432b2e4c5" y="188.753405"/>
      </g>
     </g>
     <g id="text_11">
      <!-- −1.125 -->
      <g transform="translate(9.992188 192.552624)scale(0.1 -0.1)">
       <use xlink:href="#DejaVuSans-2212"/>
       <use x="83.789062" xlink:href="#DejaVuSans-31"/>
       <use x="147.412109" xlink:href="#DejaVuSans-2e"/>
       <use x="179.199219" xlink:href="#DejaVuSans-31"/>
       <use x="242.822266" xlink:href="#DejaVuSans-32"/>
       <use x="306.445312" xlink:href="#DejaVuSans-35"/>
      </g>
     </g>
    </g>
    <g id="ytick_4">
     <g id="line2d_11">
      <g>
       <use style="stroke:#000000;stroke-width:0.8;" x="54" xlink:href="#m7432b2e4c5" y="162.168335"/>
      </g>
     </g>
     <g id="text_12">
      <!-- −1.100 -->
      <g transform="translate(9.992188 165.967554)scale(0.1 -0.1)">
       <use xlink:href="#DejaVuSans-2212"/>
       <use x="83.789062" xlink:href="#DejaVuSans-31"/>
       <use x="147.412109" xlink:href="#DejaVuSans-2e"/>
       <use x="179.199219" xlink:href="#DejaVuSans-31"/>
       <use x="242.822266" xlink:href="#DejaVuSans-30"/>
       <use x="306.445312" xlink:href="#DejaVuSans-30"/>
      </g>
     </g>
    </g>
    <g id="ytick_5">
     <g id="line2d_12">
      <g>
       <use style="stroke:#000000;stroke-width:0.8;" x="54" xlink:href="#m7432b2e4c5" y="135.583266"/>
      </g>
     </g>
     <g id="text_13">
      <!-- −1.075 -->
      <g transform="translate(9.992188 139.382484)scale(0.1 -0.1)">
       <use xlink:href="#DejaVuSans-2212"/>
       <use x="83.789062" xlink:href="#DejaVuSans-31"/>
       <use x="147.412109" xlink:href="#DejaVuSans-2e"/>
       <use x="179.199219" xlink:href="#DejaVuSans-30"/>
       <use x="242.822266" xlink:href="#DejaVuSans-37"/>
       <use x="306.445312" xlink:href="#DejaVuSans-35"/>
      </g>
     </g>
    </g>
    <g id="ytick_6">
     <g id="line2d_13">
      <g>
       <use style="stroke:#000000;stroke-width:0.8;" x="54" xlink:href="#m7432b2e4c5" y="108.998196"/>
      </g>
     </g>
     <g id="text_14">
      <!-- −1.050 -->
      <g transform="translate(9.992188 112.797414)scale(0.1 -0.1)">
       <use xlink:href="#DejaVuSans-2212"/>
       <use x="83.789062" xlink:href="#DejaVuSans-31"/>
       <use x="147.412109" xlink:href="#DejaVuSans-2e"/>
       <use x="179.199219" xlink:href="#DejaVuSans-30"/>
       <use x="242.822266" xlink:href="#DejaVuSans-35"/>
       <use x="306.445312" xlink:href="#DejaVuSans-30"/>
      </g>
     </g>
    </g>
    <g id="ytick_7">
     <g id="line2d_14">
      <g>
       <use style="stroke:#000000;stroke-width:0.8;" x="54" xlink:href="#m7432b2e4c5" y="82.413126"/>
      </g>
     </g>
     <g id="text_15">
      <!-- −1.025 -->
      <g transform="translate(9.992188 86.212345)scale(0.1 -0.1)">
       <use xlink:href="#DejaVuSans-2212"/>
       <use x="83.789062" xlink:href="#DejaVuSans-31"/>
       <use x="147.412109" xlink:href="#DejaVuSans-2e"/>
       <use x="179.199219" xlink:href="#DejaVuSans-30"/>
       <use x="242.822266" xlink:href="#DejaVuSans-32"/>
       <use x="306.445312" xlink:href="#DejaVuSans-35"/>
      </g>
     </g>
    </g>
    <g id="ytick_8">
     <g id="line2d_15">
      <g>
       <use style="stroke:#000000;stroke-width:0.8;" x="54" xlink:href="#m7432b2e4c5" y="55.828056"/>
      </g>
     </g>
     <g id="text_16">
      <!-- −1.000 -->
      <g transform="translate(9.992188 59.627275)scale(0.1 -0.1)">
       <use xlink:href="#DejaVuSans-2212"/>
       <use x="83.789062" xlink:href="#DejaVuSans-31"/>
       <use x="147.412109" xlink:href="#DejaVuSans-2e"/>
       <use x="179.199219" xlink:href="#DejaVuSans-30"/>
       <use x="242.822266" xlink:href="#DejaVuSans-30"/>
       <use x="306.445312" xlink:href="#DejaVuSans-30"/>
      </g>
     </g>
    </g>
    <g id="text_17">
     <!-- Energy (hartree) -->
     <defs>
      <path d="M 9.8125 72.90625 
L 55.90625 72.90625 
L 55.90625 64.59375 
L 19.671875 64.59375 
L 19.671875 43.015625 
L 54.390625 43.015625 
L 54.390625 34.71875 
L 19.671875 34.71875 
L 19.671875 8.296875 
L 56.78125 8.296875 
L 56.78125 0 
L 9.8125 0 
z
" id="DejaVuSans-45"/>
      <path d="M 54.890625 33.015625 
L 54.890625 0 
L 45.90625 0 
L 45.90625 32.71875 
Q 45.90625 40.484375 42.875 44.328125 
Q 39.84375 48.1875 33.796875 48.1875 
Q 26.515625 48.1875 22.3125 43.546875 
Q 18.109375 38.921875 18.109375 30.90625 
L 18.109375 0 
L 9.078125 0 
L 9.078125 54.6875 
L 18.109375 54.6875 
L 18.109375 46.1875 
Q 21.34375 51.125 25.703125 53.5625 
Q 30.078125 56 35.796875 56 
Q 45.21875 56 50.046875 50.171875 
Q 54.890625 44.34375 54.890625 33.015625 
z
" id="DejaVuSans-6e"/>
      <path d="M 56.203125 29.59375 
L 56.203125 25.203125 
L 14.890625 25.203125 
Q 15.484375 15.921875 20.484375 11.0625 
Q 25.484375 6.203125 34.421875 6.203125 
Q 39.59375 6.203125 44.453125 7.46875 
Q 49.3125 8.734375 54.109375 11.28125 
L 54.109375 2.78125 
Q 49.265625 0.734375 44.1875 -0.34375 
Q 39.109375 -1.421875 33.890625 -1.421875 
Q 20.796875 -1.421875 13.15625 6.1875 
Q 5.515625 13.8125 5.515625 26.8125 
Q 5.515625 40.234375 12.765625 48.109375 
Q 20.015625 56 32.328125 56 
Q 43.359375 56 49.78125 48.890625 
Q 56.203125 41.796875 56.203125 29.59375 
z
M 47.21875 32.234375 
Q 47.125 39.59375 43.09375 43.984375 
Q 39.0625 48.390625 32.421875 48.390625 
Q 24.90625 48.390625 20.390625 44.140625 
Q 15.875 39.890625 15.1875 32.171875 
z
" id="DejaVuSans-65"/>
      <path d="M 41.109375 46.296875 
Q 39.59375 47.171875 37.8125 47.578125 
Q 36.03125 48 33.890625 48 
Q 26.265625 48 22.1875 43.046875 
Q 18.109375 38.09375 18.109375 28.8125 
L 18.109375 0 
L 9.078125 0 
L 9.078125 54.6875 
L 18.109375 54.6875 
L 18.109375 46.1875 
Q 20.953125 51.171875 25.484375 53.578125 
Q 30.03125 56 36.53125 56 
Q 37.453125 56 38.578125 55.875 
Q 39.703125 55.765625 41.0625 55.515625 
z
" id="DejaVuSans-72"/>
      <path d="M 45.40625 27.984375 
Q 45.40625 37.75 41.375 43.109375 
Q 37.359375 48.484375 30.078125 48.484375 
Q 22.859375 48.484375 18.828125 43.109375 
Q 14.796875 37.75 14.796875 27.984375 
Q 14.796875 18.265625 18.828125 12.890625 
Q 22.859375 7.515625 30.078125 7.515625 
Q 37.359375 7.515625 41.375 12.890625 
Q 45.40625 18.265625 45.40625 27.984375 
z
M 54.390625 6.78125 
Q 54.390625 -7.171875 48.1875 -13.984375 
Q 42 -20.796875 29.203125 -20.796875 
Q 24.46875 -20.796875 20.265625 -20.09375 
Q 16.0625 -19.390625 12.109375 -17.921875 
L 12.109375 -9.1875 
Q 16.0625 -11.328125 19.921875 -12.34375 
Q 23.78125 -13.375 27.78125 -13.375 
Q 36.625 -13.375 41.015625 -8.765625 
Q 45.40625 -4.15625 45.40625 5.171875 
L 45.40625 9.625 
Q 42.625 4.78125 38.28125 2.390625 
Q 33.9375 0 27.875 0 
Q 17.828125 0 11.671875 7.65625 
Q 5.515625 15.328125 5.515625 27.984375 
Q 5.515625 40.671875 11.671875 48.328125 
Q 17.828125 56 27.875 56 
Q 33.9375 56 38.28125 53.609375 
Q 42.625 51.21875 45.40625 46.390625 
L 45.40625 54.6875 
L 54.390625 54.6875 
z
" id="DejaVuSans-67"/>
      <path d="M 32.171875 -5.078125 
Q 28.375 -14.84375 24.75 -17.8125 
Q 21.140625 -20.796875 15.09375 -20.796875 
L 7.90625 -20.796875 
L 7.90625 -13.28125 
L 13.1875 -13.28125 
Q 16.890625 -13.28125 18.9375 -11.515625 
Q 21 -9.765625 23.484375 -3.21875 
L 25.09375 0.875 
L 2.984375 54.6875 
L 12.5 54.6875 
L 29.59375 11.921875 
L 46.6875 54.6875 
L 56.203125 54.6875 
z
" id="DejaVuSans-79"/>
      <path id="DejaVuSans-20"/>
      <path d="M 31 75.875 
Q 24.46875 64.65625 21.28125 53.65625 
Q 18.109375 42.671875 18.109375 31.390625 
Q 18.109375 20.125 21.3125 9.0625 
Q 24.515625 -2 31 -13.1875 
L 23.1875 -13.1875 
Q 15.875 -1.703125 12.234375 9.375 
Q 8.59375 20.453125 8.59375 31.390625 
Q 8.59375 42.28125 12.203125 53.3125 
Q 15.828125 64.359375 23.1875 75.875 
z
" id="DejaVuSans-28"/>
      <path d="M 54.890625 33.015625 
L 54.890625 0 
L 45.90625 0 
L 45.90625 32.71875 
Q 45.90625 40.484375 42.875 44.328125 
Q 39.84375 48.1875 33.796875 48.1875 
Q 26.515625 48.1875 22.3125 43.546875 
Q 18.109375 38.921875 18.109375 30.90625 
L 18.109375 0 
L 9.078125 0 
L 9.078125 75.984375 
L 18.109375 75.984375 
L 18.109375 46.1875 
Q 21.34375 51.125 25.703125 53.5625 
Q 30.078125 56 35.796875 56 
Q 45.21875 56 50.046875 50.171875 
Q 54.890625 44.34375 54.890625 33.015625 
z
" id="DejaVuSans-68"/>
      <path d="M 34.28125 27.484375 
Q 23.390625 27.484375 19.1875 25 
Q 14.984375 22.515625 14.984375 16.5 
Q 14.984375 11.71875 18.140625 8.90625 
Q 21.296875 6.109375 26.703125 6.109375 
Q 34.1875 6.109375 38.703125 11.40625 
Q 43.21875 16.703125 43.21875 25.484375 
L 43.21875 27.484375 
z
M 52.203125 31.203125 
L 52.203125 0 
L 43.21875 0 
L 43.21875 8.296875 
Q 40.140625 3.328125 35.546875 0.953125 
Q 30.953125 -1.421875 24.3125 -1.421875 
Q 15.921875 -1.421875 10.953125 3.296875 
Q 6 8.015625 6 15.921875 
Q 6 25.140625 12.171875 29.828125 
Q 18.359375 34.515625 30.609375 34.515625 
L 43.21875 34.515625 
L 43.21875 35.40625 
Q 43.21875 41.609375 39.140625 45 
Q 35.0625 48.390625 27.6875 48.390625 
Q 23 48.390625 18.546875 47.265625 
Q 14.109375 46.140625 10.015625 43.890625 
L 10.015625 52.203125 
Q 14.9375 54.109375 19.578125 55.046875 
Q 24.21875 56 28.609375 56 
Q 40.484375 56 46.34375 49.84375 
Q 52.203125 43.703125 52.203125 31.203125 
z
" id="DejaVuSans-61"/>
      <path d="M 18.3125 70.21875 
L 18.3125 54.6875 
L 36.8125 54.6875 
L 36.8125 47.703125 
L 18.3125 47.703125 
L 18.3125 18.015625 
Q 18.3125 11.328125 20.140625 9.421875 
Q 21.96875 7.515625 27.59375 7.515625 
L 36.8125 7.515625 
L 36.8125 0 
L 27.59375 0 
Q 17.1875 0 13.234375 3.875 
Q 9.28125 7.765625 9.28125 18.015625 
L 9.28125 47.703125 
L 2.6875 47.703125 
L 2.6875 54.6875 
L 9.28125 54.6875 
L 9.28125 70.21875 
z
" id="DejaVuSans-74"/>
      <path d="M 8.015625 75.875 
L 15.828125 75.875 
Q 23.140625 64.359375 26.78125 53.3125 
Q 30.421875 42.28125 30.421875 31.390625 
Q 30.421875 20.453125 26.78125 9.375 
Q 23.140625 -1.703125 15.828125 -13.1875 
L 8.015625 -13.1875 
Q 14.5 -2 17.703125 9.0625 
Q 20.90625 20.125 20.90625 31.390625 
Q 20.90625 42.671875 17.703125 53.65625 
Q 14.5 64.65625 8.015625 75.875 
z
" id="DejaVuSans-29"/>
     </defs>
     <g transform="translate(3.9125 184.819063)rotate(-90)scale(0.1 -0.1)">
      <use xlink:href="#DejaVuSans-45"/>
      <use x="63.183594" xlink:href="#DejaVuSans-6e"/>
      <use x="126.5625" xlink:href="#DejaVuSans-65"/>
      <use x="188.085938" xlink:href="#DejaVuSans-72"/>
      <use x="229.183594" xlink:href="#DejaVuSans-67"/>
      <use x="292.660156" xlink:href="#DejaVuSans-79"/>
      <use x="351.839844" xlink:href="#DejaVuSans-20"/>
      <use x="383.626953" xlink:href="#DejaVuSans-28"/>
      <use x="422.640625" xlink:href="#DejaVuSans-68"/>
      <use x="486.019531" xlink:href="#DejaVuSans-61"/>
      <use x="547.298828" xlink:href="#DejaVuSans-72"/>
      <use x="588.412109" xlink:href="#DejaVuSans-74"/>
      <use x="627.621094" xlink:href="#DejaVuSans-72"/>
      <use x="668.703125" xlink:href="#DejaVuSans-65"/>
      <use x="730.226562" xlink:href="#DejaVuSans-65"/>
      <use x="791.75" xlink:href="#DejaVuSans-29"/>
     </g>
    </g>
   </g>
   <g id="line2d_16">
    <path clip-path="url(#p3c9b032d0d)" d="M 74.106799 -1 
L 75.341387 45.947193 
L 76.628031 86.080662 
L 77.914675 119.271151 
L 79.201319 146.532752 
L 80.487963 168.73945 
L 81.613776 184.666999 
L 82.73959 197.874641 
L 83.865403 208.744028 
L 84.991216 217.582314 
L 86.11703 224.667414 
L 87.242843 230.224295 
L 88.207826 233.93392 
L 89.172809 236.785371 
L 89.976961 238.572797 
L 90.781114 239.881447 
L 91.585266 240.756803 
L 92.228588 241.171926 
L 92.87191 241.354086 
L 93.515232 241.321387 
L 94.158554 241.090057 
L 94.962706 240.544492 
L 95.766859 239.739558 
L 96.731842 238.466743 
L 97.857655 236.604983 
L 99.144299 234.048086 
L 100.752604 230.313208 
L 102.68257 225.194225 
L 104.934196 218.561318 
L 107.829145 209.314105 
L 112.332399 194.068373 
L 121.178075 164.027744 
L 125.359668 150.676777 
L 129.058769 139.58767 
L 132.436209 130.136674 
L 135.652819 121.775886 
L 138.708598 114.428886 
L 141.764377 107.668415 
L 144.659326 101.800294 
L 147.554275 96.443666 
L 150.288393 91.839518 
L 153.022511 87.659519 
L 155.756629 83.882906 
L 158.490747 80.486874 
L 161.224866 77.446587 
L 163.958984 74.736473 
L 166.693102 72.330227 
L 169.588051 70.08473 
L 172.483 68.120371 
L 175.538779 66.319776 
L 178.755388 64.692249 
L 182.132829 63.241631 
L 185.671099 61.966129 
L 189.531031 60.816442 
L 193.712623 59.807636 
L 198.376707 58.918008 
L 203.684113 58.143656 
L 209.795672 57.489555 
L 217.033043 56.951528 
L 225.87872 56.528061 
L 237.458515 56.210071 
L 254.024055 55.995344 
L 282.973542 55.874811 
L 365.962071 55.832385 
L 388.8 55.830763 
L 388.8 55.830763 
" style="fill:none;stroke:#ff0000;stroke-linecap:square;stroke-width:1.5;"/>
   </g>
   <g id="line2d_17">
    <path clip-path="url(#p3c9b032d0d)" d="M 59.58 230.801921 
L 80.648793 230.699238 
L 82.257098 230.447677 
L 83.382912 230.05593 
L 84.347894 229.491667 
L 85.312877 228.647255 
L 86.27786 227.474383 
L 87.403674 225.679438 
L 88.851148 222.837008 
L 91.263605 218.021663 
L 92.228588 216.629276 
L 93.032741 215.888944 
L 93.676063 215.611777 
L 94.319384 215.624921 
L 94.962706 215.920244 
L 95.606028 216.474522 
L 96.410181 217.476347 
L 97.535994 219.294484 
L 101.556756 226.231058 
L 102.68257 227.619129 
L 103.808383 228.676584 
L 104.934196 229.438664 
L 106.22084 230.019108 
L 107.668315 230.406007 
L 109.59828 230.656108 
L 112.493229 230.774685 
L 121.017245 230.801855 
L 388.8 230.801921 
L 388.8 230.801921 
" style="fill:none;stroke:#000000;stroke-linecap:square;stroke-width:1.5;"/>
   </g>
   <g id="line2d_18">
    <path clip-path="url(#p3c9b032d0d)" d="M 59.58 210.629998 
L 78.718828 210.52695 
L 80.166302 210.275093 
L 81.131285 209.908016 
L 82.096268 209.284656 
L 82.90042 208.512856 
L 83.865403 207.251765 
L 84.991216 205.382545 
L 87.082013 201.838962 
L 87.725335 201.137366 
L 88.207826 200.841979 
L 88.690318 200.779418 
L 89.172809 200.968018 
L 89.6553 201.411022 
L 90.298622 202.37171 
L 91.102775 204.048295 
L 93.515232 209.512372 
L 94.158554 210.319587 
L 94.641045 210.600716 
L 95.123537 210.582658 
L 95.606028 210.26645 
L 96.08852 209.6711 
L 96.731842 208.505539 
L 97.696825 206.209712 
L 99.62679 201.424211 
L 100.430943 199.99616 
L 101.074265 199.249311 
L 101.556756 198.937259 
L 102.039248 198.835497 
L 102.521739 198.932149 
L 103.165061 199.336022 
L 103.969213 200.198459 
L 105.095027 201.837747 
L 108.150806 206.530716 
L 109.276619 207.816789 
L 110.402433 208.785037 
L 111.528246 209.470277 
L 112.81489 209.980188 
L 114.262364 210.310429 
L 116.19233 210.516477 
L 119.56977 210.615116 
L 133.401192 210.629998 
L 388.8 210.629998 
L 388.8 210.629998 
" style="fill:none;stroke:#000000;stroke-linecap:square;stroke-width:1.5;"/>
   </g>
   <g id="line2d_19">
    <path clip-path="url(#p3c9b032d0d)" d="M 59.58 191.599708 
L 77.432184 191.499415 
L 78.718828 191.274009 
L 79.68381 190.902601 
L 80.487963 190.384235 
L 81.292115 189.623841 
L 82.257098 188.371068 
L 83.865403 185.760742 
L 84.830386 184.36766 
L 85.473708 183.771794 
L 85.956199 183.586056 
L 86.438691 183.664606 
L 86.921182 184.023366 
L 87.403674 184.654457 
L 88.046996 185.857202 
L 90.459453 190.998959 
L 90.941944 191.469799 
L 91.424436 191.595713 
L 91.746097 191.480409 
L 92.228588 191.02155 
L 92.87191 189.957054 
L 93.997723 187.434598 
L 94.962706 185.493782 
L 95.606028 184.726466 
L 96.08852 184.530739 
L 96.410181 184.592786 
L 96.892672 184.964605 
L 97.375164 185.6325 
L 98.179316 187.209173 
L 99.787621 190.526515 
L 100.430943 191.322041 
L 100.913434 191.582406 
L 101.395926 191.528683 
L 101.878417 191.164773 
L 102.360909 190.517363 
L 103.004231 189.293892 
L 104.130044 186.580929 
L 105.577518 183.21031 
L 106.381671 181.882317 
L 107.024993 181.220323 
L 107.507484 180.969868 
L 107.989976 180.923758 
L 108.472467 181.066436 
L 109.115789 181.511368 
L 109.919941 182.385819 
L 111.206585 184.20701 
L 113.458212 187.440123 
L 114.744856 188.871786 
L 115.870669 189.804203 
L 116.996483 190.466763 
L 118.283127 190.961679 
L 119.891431 191.30846 
L 121.982228 191.504714 
L 125.681329 191.589488 
L 144.980987 191.599708 
L 388.8 191.599708 
L 388.8 191.599708 
" style="fill:none;stroke:#000000;stroke-linecap:square;stroke-width:1.5;"/>
   </g>
   <g id="line2d_20">
    <path clip-path="url(#p3c9b032d0d)" d="M 59.58 173.686299 
L 76.467201 173.589549 
L 77.753845 173.355652 
L 78.718828 172.96035 
L 79.52298 172.405057 
L 80.327132 171.596908 
L 81.292115 170.304176 
L 83.382912 167.331637 
L 84.026234 166.875675 
L 84.508725 166.821627 
L 84.991216 167.050785 
L 85.473708 167.567491 
L 86.11703 168.651493 
L 88.529487 173.373631 
L 89.011979 173.670476 
L 89.333639 173.658667 
L 89.6553 173.478524 
L 90.137792 172.918437 
L 90.781114 171.757801 
L 92.389419 168.646961 
L 92.87191 168.188109 
L 93.193571 168.087433 
L 93.515232 168.159758 
L 93.997723 168.579723 
L 94.641045 169.617237 
L 96.571011 173.268405 
L 97.053503 173.639687 
L 97.375164 173.680521 
L 97.696825 173.551737 
L 98.179316 173.059327 
L 98.822638 171.952257 
L 100.752604 168.086624 
L 101.235095 167.594535 
L 101.717587 167.438802 
L 102.039248 167.528268 
L 102.521739 167.935515 
L 103.165061 168.899677 
L 105.577518 173.25609 
L 106.06001 173.613255 
L 106.542501 173.671614 
L 107.024993 173.425998 
L 107.507484 172.895622 
L 108.150806 171.816464 
L 109.115789 169.684059 
L 110.724094 166.054975 
L 111.528246 164.73581 
L 112.171568 164.054005 
L 112.81489 163.726424 
L 113.297382 163.705121 
L 113.940703 163.945487 
L 114.584025 164.443172 
L 115.549008 165.533686 
L 119.891431 171.014763 
L 121.017245 171.910475 
L 122.143058 172.553168 
L 123.429702 173.038816 
L 125.038007 173.384464 
L 127.128803 173.58463 
L 130.827904 173.674554 
L 148.358427 173.686299 
L 388.8 173.686299 
L 388.8 173.686299 
" style="fill:none;stroke:#000000;stroke-linecap:square;stroke-width:1.5;"/>
   </g>
   <g id="line2d_21">
    <path clip-path="url(#p3c9b032d0d)" d="M 59.58 156.877582 
L 75.823879 156.771967 
L 77.110523 156.50972 
L 78.075506 156.067312 
L 78.879658 155.455024 
L 79.844641 154.386778 
L 82.578759 150.997063 
L 83.061251 150.848113 
L 83.543742 150.972883 
L 84.026234 151.38724 
L 84.669555 152.351726 
L 85.795369 154.677598 
L 86.599521 156.152693 
L 87.082013 156.694806 
L 87.564504 156.877431 
L 87.886165 156.783819 
L 88.368657 156.336631 
L 89.011979 155.292061 
L 90.459453 152.664069 
L 90.941944 152.230319 
L 91.263605 152.154176 
L 91.585266 152.258054 
L 92.067758 152.73173 
L 92.71108 153.817214 
L 93.997723 156.230909 
L 94.480215 156.741912 
L 94.801876 156.872994 
L 95.123537 156.82274 
L 95.606028 156.419423 
L 96.24935 155.391342 
L 97.857655 152.440201 
L 98.340147 152.044546 
L 98.661808 151.992744 
L 98.983468 152.115056 
L 99.46596 152.599655 
L 100.109282 153.669571 
L 101.556756 156.293911 
L 102.039248 156.758088 
L 102.521739 156.870331 
L 102.8434 156.739456 
L 103.325892 156.254657 
L 103.969213 155.182661 
L 105.738349 151.806156 
L 106.22084 151.303648 
L 106.703332 151.118795 
L 107.185823 151.264402 
L 107.668315 151.715151 
L 108.311637 152.686779 
L 110.402433 156.30628 
L 110.884924 156.728523 
L 111.367416 156.877519 
L 111.849907 156.740276 
L 112.332399 156.327607 
L 112.975721 155.405589 
L 113.940703 153.474455 
L 115.870669 149.411543 
L 116.674822 148.246092 
L 117.318144 147.66809 
L 117.961466 147.417794 
L 118.604787 147.475988 
L 119.248109 147.802243 
L 120.052262 148.504936 
L 121.178075 149.83361 
L 124.073024 153.411875 
L 125.359668 154.594708 
L 126.646312 155.452404 
L 127.932956 156.030161 
L 129.38043 156.429822 
L 131.310396 156.700893 
L 134.205344 156.839901 
L 141.442716 156.877165 
L 388.8 156.877582 
L 388.8 156.877582 
" style="fill:none;stroke:#000000;stroke-linecap:square;stroke-width:1.5;"/>
   </g>
   <g id="line2d_22">
    <path clip-path="url(#p3c9b032d0d)" d="M 59.58 141.166672 
L 75.180557 141.067565 
L 76.467201 140.809253 
L 77.432184 140.366895 
L 78.236336 139.754158 
L 79.201319 138.69988 
L 81.292115 136.159534 
L 81.774607 135.878346 
L 82.257098 135.841373 
L 82.73959 136.083081 
L 83.222081 136.604528 
L 83.865403 137.660823 
L 85.473708 140.606819 
L 85.956199 141.062641 
L 86.27786 141.165769 
L 86.599521 141.097507 
L 87.082013 140.689229 
L 87.725335 139.704258 
L 89.011979 137.531805 
L 89.49447 137.132662 
L 89.816131 137.080921 
L 90.137792 137.209716 
L 90.620283 137.714553 
L 91.263605 138.79989 
L 92.389419 140.719455 
L 92.87191 141.116808 
L 93.193571 141.16003 
L 93.515232 141.018883 
L 93.997723 140.493976 
L 94.801876 139.085298 
L 95.606028 137.700202 
L 96.08852 137.204902 
L 96.410181 137.084387 
L 96.731842 137.145576 
L 97.214333 137.560053 
L 97.857655 138.56618 
L 99.144299 140.734939 
L 99.62679 141.117723 
L 99.948451 141.16083 
L 100.270112 141.027898 
L 100.752604 140.526062 
L 101.395926 139.448529 
L 102.68257 137.212985 
L 103.165061 136.787261 
L 103.486722 136.70262 
L 103.808383 136.7844 
L 104.290874 137.198577 
L 104.934196 138.167835 
L 106.381671 140.613345 
L 106.864162 141.051731 
L 107.346654 141.160541 
L 107.829145 140.923747 
L 108.311637 140.374197 
L 109.115789 138.979257 
L 110.402433 136.641606 
L 111.045755 135.952341 
L 111.528246 135.774178 
L 112.010738 135.902993 
L 112.493229 136.315565 
L 113.136551 137.211634 
L 115.388178 140.757189 
L 115.870669 141.086977 
L 116.353161 141.160066 
L 116.835652 140.970175 
L 117.318144 140.531819 
L 117.961466 139.618208 
L 118.926448 137.776576 
L 120.856414 133.998183 
L 121.660567 132.921779 
L 122.303889 132.38516 
L 122.947211 132.147369 
L 123.590532 132.191031 
L 124.233854 132.480296 
L 125.038007 133.114615 
L 126.16382 134.329178 
L 129.38043 137.991558 
L 130.667074 139.058351 
L 131.953718 139.834239 
L 133.240362 140.361504 
L 134.848666 140.761532 
L 136.778632 141.001915 
L 139.834411 141.13248 
L 147.875936 141.166398 
L 388.8 141.166672 
L 388.8 141.166672 
" style="fill:none;stroke:#000000;stroke-linecap:square;stroke-width:1.5;"/>
   </g>
   <g id="line2d_23">
    <path clip-path="url(#p3c9b032d0d)" d="M 59.58 126.561375 
L 74.698065 126.463204 
L 75.984709 126.20061 
L 76.949692 125.750376 
L 77.753845 125.133006 
L 78.718828 124.097792 
L 80.487963 122.118535 
L 80.970454 121.85595 
L 81.452946 121.828837 
L 81.935437 122.071326 
L 82.417929 122.582203 
L 83.061251 123.598537 
L 84.508725 126.058408 
L 84.991216 126.477747 
L 85.312877 126.561375 
L 85.634538 126.478321 
L 86.11703 126.060993 
L 86.760352 125.104496 
L 87.886165 123.3642 
L 88.368657 123.013606 
L 88.690318 122.991693 
L 89.011979 123.146091 
L 89.49447 123.673108 
L 90.459453 125.296037 
L 91.102775 126.215157 
L 91.585266 126.540978 
L 91.906927 126.535604 
L 92.228588 126.35007 
L 92.71108 125.78099 
L 94.480215 123.179228 
L 94.801876 123.059664 
L 95.123537 123.121798 
L 95.606028 123.535656 
L 96.24935 124.515324 
L 97.214333 126.062465 
L 97.696825 126.487235 
L 98.018486 126.560632 
L 98.340147 126.455029 
L 98.822638 125.988529 
L 99.46596 124.968534 
L 100.430943 123.398499 
L 100.913434 122.956543 
L 101.235095 122.864097 
L 101.556756 122.94429 
L 102.039248 123.364813 
L 102.68257 124.328636 
L 103.808383 126.097786 
L 104.290874 126.492681 
L 104.612535 126.560727 
L 104.934196 126.463746 
L 105.416688 126.030189 
L 106.06001 125.052712 
L 107.346654 122.947572 
L 107.829145 122.522179 
L 108.311637 122.428362 
L 108.794128 122.675411 
L 109.276619 123.21658 
L 110.241602 124.78198 
L 111.045755 125.98179 
L 111.528246 126.420109 
L 112.010738 126.560834 
L 112.493229 126.383636 
L 112.975721 125.912621 
L 113.619043 124.940156 
L 115.388178 122.035127 
L 115.870669 121.620772 
L 116.353161 121.477952 
L 116.835652 121.614361 
L 117.318144 122.007011 
L 117.961466 122.841629 
L 120.213092 126.141163 
L 120.695584 126.465979 
L 121.178075 126.560022 
L 121.660567 126.415635 
L 122.143058 126.043378 
L 122.78638 125.239518 
L 123.751363 123.573782 
L 125.842159 119.750914 
L 126.646312 118.732053 
L 127.289634 118.206862 
L 127.932956 117.950486 
L 128.576277 117.949907 
L 129.219599 118.1758 
L 130.023752 118.715395 
L 131.149565 119.793167 
L 135.009497 123.784094 
L 136.296141 124.706486 
L 137.582785 125.376024 
L 139.030259 125.87847 
L 140.799394 126.234151 
L 143.051021 126.443803 
L 146.910953 126.54463 
L 161.707357 126.561373 
L 388.8 126.561375 
L 388.8 126.561375 
" style="fill:none;stroke:#000000;stroke-linecap:square;stroke-width:1.5;"/>
   </g>
   <g id="line2d_24">
    <path clip-path="url(#p3c9b032d0d)" d="M 59.58 113.080335 
L 74.376404 112.975053 
L 75.502218 112.747392 
L 76.467201 112.320982 
L 77.271353 111.734775 
L 78.397167 110.580233 
L 79.68381 109.243906 
L 80.327132 108.892223 
L 80.809624 108.884985 
L 81.292115 109.135155 
L 81.774607 109.637554 
L 82.578759 110.882025 
L 83.704573 112.618156 
L 84.187064 113.007634 
L 84.508725 113.080176 
L 84.830386 112.993551 
L 85.312877 112.587147 
L 86.11703 111.428999 
L 86.921182 110.309959 
L 87.403674 109.968521 
L 87.725335 109.942753 
L 88.046996 110.086389 
L 88.529487 110.583938 
L 90.298622 112.982814 
L 90.620283 113.0801 
L 90.941944 113.000793 
L 91.424436 112.576152 
L 92.228588 111.370923 
L 93.032741 110.297209 
L 93.515232 110.046956 
L 93.836893 110.098331 
L 94.319384 110.487604 
L 94.962706 111.409792 
L 95.927689 112.776014 
L 96.410181 113.067274 
L 96.731842 113.046776 
L 97.214333 112.699721 
L 97.857655 111.804616 
L 98.822638 110.368364 
L 99.305129 109.991682 
L 99.62679 109.944546 
L 99.948451 110.068182 
L 100.430943 110.537554 
L 101.395926 112.003269 
L 102.039248 112.80965 
L 102.521739 113.07161 
L 102.8434 113.042017 
L 103.325892 112.698575 
L 103.969213 111.82027 
L 105.095027 110.132055 
L 105.577518 109.749986 
L 105.899179 109.68384 
L 106.22084 109.77618 
L 106.703332 110.186013 
L 107.507484 111.341844 
L 108.472467 112.688963 
L 108.954958 113.030043 
L 109.43745 113.045064 
L 109.919941 112.730878 
L 110.563263 111.905491 
L 112.171568 109.551262 
L 112.65406 109.251078 
L 113.136551 109.259574 
L 113.619043 109.569173 
L 114.262364 110.350107 
L 116.0315 112.785409 
L 116.513991 113.05177 
L 116.996483 113.035858 
L 117.478974 112.739508 
L 118.122296 111.978719 
L 120.534753 108.530053 
L 121.017245 108.301862 
L 121.499736 108.324321 
L 121.982228 108.58758 
L 122.62555 109.252025 
L 123.751363 110.889511 
L 124.877176 112.396346 
L 125.520498 112.91436 
L 126.00299 113.073499 
L 126.485481 113.020996 
L 126.967973 112.760402 
L 127.611295 112.121081 
L 128.415447 110.95758 
L 131.632057 105.815309 
L 132.436209 105.137946 
L 133.079531 104.862644 
L 133.722853 104.816003 
L 134.366175 104.975261 
L 135.170327 105.414286 
L 136.296141 106.344901 
L 141.121055 110.783964 
L 142.56853 111.618328 
L 144.016004 112.192711 
L 145.624309 112.595308 
L 147.715105 112.874154 
L 150.770884 113.028112 
L 157.525765 113.078672 
L 287.155134 113.080335 
L 388.8 113.080335 
L 388.8 113.080335 
" style="fill:none;stroke:#000000;stroke-linecap:square;stroke-width:1.5;"/>
   </g>
   <g id="line2d_25">
    <path clip-path="url(#p3c9b032d0d)" d="M 59.58 100.758845 
L 74.054744 100.655336 
L 75.180557 100.429338 
L 76.14554 100.008632 
L 77.110523 99.300777 
L 79.68381 97.082446 
L 80.166302 97.040307 
L 80.648793 97.235907 
L 81.131285 97.669764 
L 81.935437 98.787027 
L 83.061251 100.364194 
L 83.543742 100.705928 
L 84.026234 100.726297 
L 84.508725 100.421778 
L 85.152047 99.640849 
L 86.27786 98.227351 
L 86.760352 98.004228 
L 87.082013 98.051785 
L 87.564504 98.408247 
L 88.207826 99.256757 
L 89.172809 100.506203 
L 89.6553 100.753193 
L 89.976961 100.712786 
L 90.459453 100.357186 
L 91.263605 99.273934 
L 92.067758 98.315245 
L 92.550249 98.123319 
L 92.87191 98.203781 
L 93.354402 98.611879 
L 95.123537 100.708929 
L 95.445198 100.754327 
L 95.766859 100.632323 
L 96.24935 100.174446 
L 97.857655 98.176972 
L 98.179316 98.071561 
L 98.500977 98.131156 
L 98.983468 98.507039 
L 99.787621 99.595155 
L 100.591773 100.551066 
L 101.074265 100.757723 
L 101.395926 100.695814 
L 101.878417 100.321131 
L 102.68257 99.224575 
L 103.486722 98.204734 
L 103.969213 97.925717 
L 104.290874 97.930148 
L 104.773366 98.218352 
L 105.416688 98.995663 
L 106.542501 100.455905 
L 107.024993 100.737036 
L 107.346654 100.742722 
L 107.829145 100.477041 
L 108.472467 99.718871 
L 109.759111 97.981545 
L 110.241602 97.669001 
L 110.724094 97.66731 
L 111.206585 97.971923 
L 111.849907 98.734688 
L 113.136551 100.406333 
L 113.619043 100.712687 
L 114.101534 100.728598 
L 114.584025 100.450899 
L 115.227347 99.713565 
L 116.835652 97.535548 
L 117.318144 97.218717 
L 117.800635 97.171939 
L 118.283127 97.39668 
L 118.926448 98.045701 
L 121.017245 100.579373 
L 121.499736 100.753956 
L 121.982228 100.676993 
L 122.464719 100.357874 
L 123.108041 99.625637 
L 125.359668 96.600596 
L 125.842159 96.311547 
L 126.324651 96.239315 
L 126.807142 96.384347 
L 127.450464 96.878121 
L 128.254617 97.839004 
L 130.023752 100.092536 
L 130.667074 100.577563 
L 131.310396 100.758369 
L 131.792887 100.679143 
L 132.436209 100.296395 
L 133.079531 99.636177 
L 134.044514 98.273466 
L 136.617802 94.363694 
L 137.421954 93.545386 
L 138.226106 93.038347 
L 138.869428 92.861942 
L 139.51275 92.877185 
L 140.316903 93.132195 
L 141.281886 93.71032 
L 142.56853 94.770734 
L 146.267631 97.965451 
L 147.715105 98.875404 
L 149.162579 99.544051 
L 150.770884 100.046374 
L 152.70085 100.404132 
L 155.274138 100.630218 
L 159.45573 100.738004 
L 173.769643 100.758831 
L 388.8 100.758845 
L 388.8 100.758845 
" style="fill:none;stroke:#000000;stroke-linecap:square;stroke-width:1.5;"/>
   </g>
   <g id="line2d_26">
    <path clip-path="url(#p3c9b032d0d)" d="M 59.58 89.651902 
L 73.733083 89.558272 
L 75.019726 89.300629 
L 75.984709 88.868885 
L 76.949692 88.173054 
L 79.040489 86.503936 
L 79.52298 86.396465 
L 80.005471 86.497926 
L 80.487963 86.821072 
L 81.131285 87.544666 
L 82.578759 89.363731 
L 83.061251 89.628673 
L 83.543742 89.594031 
L 84.026234 89.268702 
L 84.830386 88.322507 
L 85.634538 87.461669 
L 86.11703 87.261799 
L 86.599521 87.38718 
L 87.082013 87.80893 
L 88.690318 89.580473 
L 89.172809 89.629484 
L 89.6553 89.343468 
L 90.298622 88.60031 
L 91.102775 87.659659 
L 91.585266 87.395514 
L 91.906927 87.408022 
L 92.389419 87.706012 
L 93.032741 88.460581 
L 93.836893 89.394008 
L 94.319384 89.642632 
L 94.641045 89.617946 
L 95.123537 89.303594 
L 95.927689 88.32613 
L 96.571011 87.608555 
L 97.053503 87.365338 
L 97.375164 87.391928 
L 97.857655 87.704835 
L 98.661808 88.672716 
L 99.305129 89.388694 
L 99.787621 89.6403 
L 100.109282 89.623408 
L 100.591773 89.326397 
L 101.235095 88.575642 
L 102.200078 87.467006 
L 102.68257 87.254328 
L 103.165061 87.36897 
L 103.647553 87.776724 
L 105.255857 89.545361 
L 105.738349 89.646364 
L 106.22084 89.430569 
L 106.864162 88.753932 
L 108.150806 87.262503 
L 108.633298 87.069809 
L 109.115789 87.182536 
L 109.59828 87.57028 
L 111.528246 89.595947 
L 112.010738 89.629924 
L 112.493229 89.376213 
L 113.136551 88.689983 
L 114.423195 87.126852 
L 114.905686 86.830645 
L 115.388178 86.803421 
L 115.870669 87.045876 
L 116.513991 87.695798 
L 117.961466 89.362225 
L 118.443957 89.617921 
L 118.926448 89.620392 
L 119.40894 89.368952 
L 120.052262 88.714694 
L 121.821397 86.604404 
L 122.303889 86.353082 
L 122.78638 86.336908 
L 123.268872 86.553127 
L 123.912193 87.138421 
L 126.00299 89.438419 
L 126.485481 89.633391 
L 126.967973 89.614261 
L 127.450464 89.383048 
L 128.093786 88.79241 
L 129.219599 87.325133 
L 130.345413 85.98589 
L 130.988735 85.540936 
L 131.471226 85.416372 
L 131.953718 85.478905 
L 132.59704 85.832138 
L 133.401192 86.609888 
L 135.813649 89.254118 
L 136.456971 89.58171 
L 137.100293 89.640189 
L 137.743615 89.422797 
L 138.386937 88.950831 
L 139.191089 88.070811 
L 140.477733 86.274822 
L 142.246869 83.860753 
L 143.211851 82.903525 
L 144.016004 82.385892 
L 144.820156 82.135536 
L 145.624309 82.137981 
L 146.428461 82.360766 
L 147.393444 82.857648 
L 148.840918 83.901857 
L 152.861681 86.978614 
L 154.469985 87.869208 
L 156.07829 88.516283 
L 157.847426 88.991826 
L 159.938222 89.322924 
L 162.83317 89.536651 
L 167.658085 89.635103 
L 186.314421 89.651899 
L 388.8 89.651902 
L 388.8 89.651902 
" style="fill:none;stroke:#000000;stroke-linecap:square;stroke-width:1.5;"/>
   </g>
   <g id="line2d_27">
    <path clip-path="url(#p3c9b032d0d)" d="M 59.58 79.838823 
L 73.572252 79.745416 
L 74.858896 79.492379 
L 75.823879 79.078107 
L 76.949692 78.308421 
L 78.397167 77.259914 
L 79.040489 77.059597 
L 79.52298 77.114482 
L 80.005471 77.366579 
L 80.648793 77.972698 
L 82.257098 79.680177 
L 82.73959 79.837861 
L 83.222081 79.724579 
L 83.704573 79.368883 
L 85.312877 77.87 
L 85.795369 77.818501 
L 86.27786 78.055679 
L 86.921182 78.699664 
L 87.886165 79.669634 
L 88.368657 79.838367 
L 88.851148 79.701719 
L 89.333639 79.302691 
L 90.620283 78.03403 
L 91.102775 77.919821 
L 91.585266 78.11443 
L 92.228588 78.734747 
L 93.193571 79.68882 
L 93.676063 79.838766 
L 94.158554 79.677382 
L 94.801876 79.08104 
L 95.766859 78.098371 
L 96.24935 77.910884 
L 96.731842 78.031665 
L 97.214333 78.420965 
L 98.500977 79.702993 
L 98.983468 79.838305 
L 99.46596 79.668833 
L 100.109282 79.070885 
L 101.074265 78.068016 
L 101.556756 77.84697 
L 102.039248 77.922061 
L 102.521739 78.268604 
L 104.130044 79.778249 
L 104.612535 79.819615 
L 105.095027 79.575227 
L 105.738349 78.931718 
L 106.703332 77.940783 
L 107.185823 77.723393 
L 107.668315 77.785495 
L 108.150806 78.107585 
L 110.080772 79.81839 
L 110.563263 79.786684 
L 111.045755 79.495935 
L 111.849907 78.645741 
L 112.65406 77.821831 
L 113.136551 77.560421 
L 113.619043 77.552049 
L 114.101534 77.794966 
L 114.744856 78.40473 
L 115.870669 79.553568 
L 116.353161 79.802615 
L 116.835652 79.812125 
L 117.318144 79.579915 
L 117.961466 78.979041 
L 119.40894 77.479731 
L 119.891431 77.263426 
L 120.373923 77.2767 
L 120.856414 77.513187 
L 121.499736 78.093102 
L 122.947211 79.552989 
L 123.429702 79.793695 
L 123.912193 79.824847 
L 124.394685 79.641392 
L 125.038007 79.114683 
L 127.289634 76.90279 
L 127.772125 76.786665 
L 128.254617 76.868547 
L 128.897938 77.256894 
L 129.862921 78.22549 
L 130.988735 79.359276 
L 131.632057 79.74369 
L 132.114548 79.838732 
L 132.59704 79.754945 
L 133.240362 79.382204 
L 134.044514 78.595695 
L 136.13531 76.346719 
L 136.778632 75.998033 
L 137.421954 75.915924 
L 138.065276 76.101296 
L 138.708598 76.519098 
L 139.673581 77.438856 
L 141.442716 79.195163 
L 142.246869 79.679874 
L 142.890191 79.834742 
L 143.533512 79.764579 
L 144.176834 79.475375 
L 144.980987 78.843891 
L 146.1068 77.597694 
L 149.162579 73.984072 
L 150.127562 73.24824 
L 150.931715 72.867087 
L 151.735867 72.698869 
L 152.54002 72.728858 
L 153.505002 72.989606 
L 154.630816 73.531591 
L 156.399951 74.682466 
L 159.938222 77.044877 
L 161.707357 77.947645 
L 163.476492 78.6159 
L 165.406458 79.112422 
L 167.658085 79.463187 
L 170.713864 79.696516 
L 175.538779 79.812174 
L 190.174353 79.83874 
L 388.8 79.838823 
L 388.8 79.838823 
" style="fill:none;stroke:#000000;stroke-linecap:square;stroke-width:1.5;"/>
   </g>
   <g id="line2d_28">
    <path clip-path="url(#p3c9b032d0d)" d="M 59.58 71.431222 
L 73.572252 71.329777 
L 74.858896 71.070419 
L 75.823879 70.668094 
L 77.271353 69.761565 
L 78.236336 69.243525 
L 78.879658 69.134605 
L 79.362149 69.237191 
L 80.005471 69.628794 
L 81.131285 70.720971 
L 81.935437 71.323986 
L 82.417929 71.431052 
L 82.90042 71.306962 
L 83.543742 70.84605 
L 84.669555 69.908269 
L 85.152047 69.75842 
L 85.634538 69.856357 
L 86.27786 70.319419 
L 87.403674 71.28945 
L 87.886165 71.430976 
L 88.368657 71.311204 
L 89.011979 70.824207 
L 89.976961 70.006918 
L 90.459453 69.857553 
L 90.941944 69.973281 
L 91.585266 70.462258 
L 92.550249 71.283953 
L 93.032741 71.430863 
L 93.515232 71.310462 
L 94.158554 70.816782 
L 95.123537 69.999658 
L 95.606028 69.858145 
L 96.08852 69.982484 
L 96.731842 70.476468 
L 97.696825 71.288977 
L 98.179316 71.430997 
L 98.661808 71.309794 
L 99.305129 70.818561 
L 100.270112 69.983471 
L 100.752604 69.813434 
L 101.235095 69.901103 
L 101.878417 70.356734 
L 103.004231 71.299864 
L 103.486722 71.431173 
L 103.969213 71.309357 
L 104.612535 70.826426 
L 105.738349 69.867137 
L 106.22084 69.72399 
L 106.703332 69.826874 
L 107.346654 70.282488 
L 108.633298 71.330215 
L 109.115789 71.430411 
L 109.59828 71.292201 
L 110.241602 70.808588 
L 111.528246 69.72393 
L 112.010738 69.595026 
L 112.493229 69.695772 
L 113.136551 70.131817 
L 114.584025 71.316039 
L 115.066517 71.431162 
L 115.549008 71.325984 
L 116.19233 70.890525 
L 117.800635 69.53523 
L 118.283127 69.411456 
L 118.765618 69.497144 
L 119.40894 69.895732 
L 121.178075 71.323 
L 121.660567 71.431012 
L 122.143058 71.340781 
L 122.78638 70.945137 
L 125.038007 69.178466 
L 125.520498 69.150979 
L 126.00299 69.305532 
L 126.646312 69.743269 
L 128.576277 71.297283 
L 129.219599 71.430651 
L 129.702091 71.330931 
L 130.345413 70.956896 
L 131.310396 70.073704 
L 132.436209 69.08194 
L 133.079531 68.766844 
L 133.722853 68.719132 
L 134.366175 68.940656 
L 135.170327 69.51441 
L 137.261124 71.212759 
L 137.904446 71.417009 
L 138.547767 71.376494 
L 139.191089 71.09726 
L 139.995242 70.479743 
L 142.72936 68.101955 
L 143.372682 67.888782 
L 144.016004 67.885827 
L 144.659326 68.085404 
L 145.463478 68.571996 
L 146.750122 69.663734 
L 148.197596 70.835796 
L 149.001749 71.255086 
L 149.805901 71.428296 
L 150.610054 71.333092 
L 151.414206 70.979911 
L 152.379189 70.269465 
L 153.665833 69.00199 
L 156.399951 66.22952 
L 157.525765 65.423823 
L 158.490747 64.975137 
L 159.45573 64.757686 
L 160.420713 64.757187 
L 161.546527 64.991794 
L 162.83317 65.496404 
L 164.763136 66.528273 
L 168.944729 68.830601 
L 171.035525 69.697133 
L 173.126321 70.327727 
L 175.538779 70.807693 
L 178.433727 71.134811 
L 182.293659 71.329824 
L 189.20937 71.418758 
L 221.214636 71.431221 
L 388.8 71.431222 
L 388.8 71.431222 
" style="fill:none;stroke:#000000;stroke-linecap:square;stroke-width:1.5;"/>
   </g>
   <g id="line2d_29">
    <path clip-path="url(#p3c9b032d0d)" d="M 59.58 64.584308 
L 73.572252 64.487177 
L 74.858896 64.250693 
L 75.984709 63.827181 
L 78.236336 62.835087 
L 78.879658 62.832195 
L 79.52298 63.062545 
L 80.327132 63.618703 
L 81.452946 64.420373 
L 82.096268 64.584289 
L 82.578759 64.495087 
L 83.222081 64.138644 
L 84.508725 63.346996 
L 84.991216 63.298313 
L 85.473708 63.44645 
L 86.27786 63.991815 
L 87.082013 64.494965 
L 87.564504 64.583703 
L 88.046996 64.464641 
L 88.851148 63.941076 
L 89.6553 63.450415 
L 90.137792 63.374789 
L 90.620283 63.510005 
L 91.424436 64.050205 
L 92.228588 64.524487 
L 92.71108 64.577086 
L 93.193571 64.418784 
L 94.158554 63.748507 
L 94.801876 63.418599 
L 95.284367 63.393641 
L 95.766859 63.575414 
L 97.535994 64.581021 
L 98.018486 64.511664 
L 98.661808 64.143678 
L 99.787621 63.417972 
L 100.270112 63.349315 
L 100.752604 63.48697 
L 101.556756 64.022032 
L 102.360909 64.506274 
L 102.8434 64.582599 
L 103.325892 64.455661 
L 104.130044 63.926261 
L 104.934196 63.40639 
L 105.416688 63.288388 
L 105.899179 63.36902 
L 106.542501 63.732067 
L 107.668315 64.472719 
L 108.150806 64.583729 
L 108.633298 64.501526 
L 109.276619 64.139146 
L 110.563263 63.292531 
L 111.045755 63.201209 
L 111.528246 63.29678 
L 112.171568 63.660636 
L 113.458212 64.489386 
L 113.940703 64.584242 
L 114.423195 64.498828 
L 115.066517 64.146721 
L 116.513991 63.185133 
L 117.157313 63.085595 
L 117.800635 63.285264 
L 118.765618 63.937796 
L 119.730601 64.498653 
L 120.373923 64.576114 
L 121.017245 64.367691 
L 121.982228 63.702145 
L 122.947211 63.074508 
L 123.590532 62.912528 
L 124.233854 63.02384 
L 125.038007 63.47684 
L 126.485481 64.425645 
L 127.128803 64.582607 
L 127.772125 64.482561 
L 128.415447 64.15348 
L 130.667074 62.721788 
L 131.310396 62.672224 
L 131.953718 62.857321 
L 132.75787 63.337394 
L 134.366175 64.388152 
L 135.009497 64.5711 
L 135.652819 64.536217 
L 136.296141 64.290391 
L 137.261124 63.642516 
L 138.869428 62.525687 
L 139.673581 62.273448 
L 140.316903 62.29235 
L 141.121055 62.577474 
L 142.246869 63.301693 
L 143.694343 64.248981 
L 144.498495 64.536568 
L 145.302648 64.560613 
L 146.1068 64.315381 
L 147.071783 63.735614 
L 149.966732 61.722109 
L 150.770884 61.490915 
L 151.575037 61.489542 
L 152.379189 61.70763 
L 153.344172 62.200541 
L 157.043273 64.406996 
L 158.008256 64.581063 
L 158.812408 64.522516 
L 159.777391 64.215269 
L 160.903205 63.578417 
L 162.350679 62.46491 
L 165.567289 59.877496 
L 166.853933 59.136372 
L 168.140576 58.66198 
L 169.26639 58.472499 
L 170.553034 58.493764 
L 172.000508 58.769802 
L 173.769643 59.364162 
L 176.825423 60.689822 
L 180.363693 62.15039 
L 182.936981 62.969326 
L 185.510269 63.560972 
L 188.405217 63.999057 
L 191.943488 64.304053 
L 196.929233 64.492458 
L 206.096571 64.574308 
L 255.310699 64.584308 
L 388.8 64.584308 
L 388.8 64.584308 
" style="fill:none;stroke:#000000;stroke-linecap:square;stroke-width:1.5;"/>
   </g>
   <g id="line2d_30">
    <path clip-path="url(#p3c9b032d0d)" d="M 59.58 59.513201 
L 73.893913 59.406762 
L 75.341387 59.14319 
L 78.557997 58.316196 
L 79.362149 58.495036 
L 80.487963 59.055802 
L 81.452946 59.461025 
L 82.096268 59.501494 
L 82.73959 59.326973 
L 84.508725 58.645349 
L 85.152047 58.722088 
L 86.11703 59.162947 
L 86.921182 59.477756 
L 87.564504 59.48372 
L 88.207826 59.258403 
L 89.49447 58.720929 
L 90.137792 58.741137 
L 90.941944 59.069462 
L 91.906927 59.474668 
L 92.550249 59.484683 
L 93.193571 59.256917 
L 94.480215 58.722424 
L 95.123537 58.752455 
L 95.927689 59.08722 
L 96.892672 59.480967 
L 97.535994 59.479382 
L 98.340147 59.164866 
L 99.46596 58.706414 
L 100.109282 58.728232 
L 100.913434 59.05274 
L 101.878417 59.463722 
L 102.521739 59.495046 
L 103.165061 59.290672 
L 104.612535 58.673764 
L 105.255857 58.685006 
L 106.06001 58.993415 
L 107.185823 59.470217 
L 107.829145 59.493241 
L 108.472467 59.291554 
L 110.080772 58.615413 
L 110.724094 58.635321 
L 111.528246 58.93875 
L 112.81489 59.476375 
L 113.458212 59.49203 
L 114.101534 59.296287 
L 116.0315 58.52766 
L 116.674822 58.588198 
L 117.478974 58.908637 
L 118.765618 59.45716 
L 119.40894 59.505806 
L 120.052262 59.353048 
L 122.62555 58.425521 
L 123.268872 58.552266 
L 124.394685 59.065377 
L 125.359668 59.445888 
L 126.00299 59.511089 
L 126.807142 59.337024 
L 128.093786 58.712672 
L 129.058769 58.34353 
L 129.862921 58.297384 
L 130.667074 58.509429 
L 133.240362 59.505312 
L 134.044514 59.441312 
L 135.009497 59.076884 
L 137.100293 58.144706 
L 137.904446 58.077187 
L 138.708598 58.236588 
L 139.834411 58.723734 
L 141.442716 59.402378 
L 142.246869 59.513123 
L 143.051021 59.413415 
L 144.016004 59.05483 
L 146.750122 57.816827 
L 147.715105 57.726451 
L 148.680088 57.899368 
L 149.805901 58.349925 
L 152.057528 59.331556 
L 153.022511 59.505544 
L 153.987494 59.44745 
L 154.952477 59.169351 
L 156.399951 58.473295 
L 158.651578 57.365393 
L 159.777391 57.068199 
L 160.742374 57.01774 
L 161.868188 57.193986 
L 163.154831 57.640892 
L 167.497255 59.379523 
L 168.623068 59.511069 
L 169.748881 59.437651 
L 171.035525 59.114335 
L 172.483 58.500827 
L 174.573796 57.33864 
L 177.790405 55.552575 
L 179.559541 54.830693 
L 181.167846 54.409346 
L 182.77615 54.217944 
L 184.545286 54.248046 
L 186.475252 54.512214 
L 189.048539 55.113907 
L 199.985012 57.965714 
L 203.684113 58.548232 
L 207.865706 58.97294 
L 213.012281 59.261782 
L 220.410484 59.435165 
L 234.885227 59.506352 
L 336.047601 59.513201 
L 388.8 59.513201 
L 388.8 59.513201 
" style="fill:none;stroke:#000000;stroke-linecap:square;stroke-width:1.5;"/>
   </g>
   <g id="line2d_31">
    <path clip-path="url(#p3c9b032d0d)" d="M 59.58 56.515505 
L 74.698065 56.407911 
L 77.110523 56.074064 
L 78.557997 55.984472 
L 79.68381 56.145425 
L 81.774607 56.515499 
L 82.73959 56.407834 
L 84.508725 56.126179 
L 85.473708 56.245592 
L 87.082013 56.515449 
L 88.046996 56.401453 
L 89.6553 56.152161 
L 90.620283 56.285904 
L 92.067758 56.515498 
L 93.032741 56.392807 
L 94.480215 56.154594 
L 95.445198 56.267707 
L 97.053503 56.514613 
L 98.018486 56.377774 
L 99.46596 56.146716 
L 100.430943 56.263908 
L 102.039248 56.515207 
L 103.004231 56.387861 
L 104.612535 56.131592 
L 105.577518 56.251841 
L 107.185823 56.515367 
L 108.150806 56.408755 
L 109.919941 56.109347 
L 110.884924 56.211804 
L 112.81489 56.514898 
L 113.779873 56.393491 
L 115.709839 56.078781 
L 116.674822 56.187537 
L 118.765618 56.514825 
L 119.891431 56.365832 
L 121.821397 56.038 
L 122.947211 56.149674 
L 125.198837 56.515505 
L 126.324651 56.392012 
L 128.737108 55.980506 
L 129.862921 56.08938 
L 132.59704 56.514275 
L 133.722853 56.38317 
L 136.617802 55.898097 
L 137.743615 56.004818 
L 141.121055 56.511504 
L 142.407699 56.349495 
L 145.624309 55.772482 
L 146.910953 55.850518 
L 149.001749 56.272086 
L 150.610054 56.501946 
L 151.896698 56.473038 
L 153.505002 56.189239 
L 156.560782 55.58316 
L 158.008256 55.563661 
L 159.616561 55.779212 
L 163.798153 56.500145 
L 165.406458 56.467265 
L 167.175594 56.187688 
L 172.80466 55.075492 
L 174.573796 55.06824 
L 176.503762 55.28634 
L 179.881202 55.949966 
L 182.61532 56.392506 
L 184.706116 56.515284 
L 186.796913 56.411693 
L 189.048539 56.069988 
L 191.943488 55.38811 
L 199.502521 53.48613 
L 202.5583 53.012365 
L 205.614079 52.774503 
L 208.830689 52.753101 
L 212.69062 52.962795 
L 218.158857 53.512565 
L 233.116092 55.119791 
L 240.835955 55.663044 
L 249.681632 56.051371 
L 260.939766 56.309808 
L 278.148627 56.45888 
L 316.587113 56.51258 
L 388.8 56.515505 
L 388.8 56.515505 
" style="fill:none;stroke:#000000;stroke-linecap:square;stroke-width:1.5;"/>
   </g>
   <g id="patch_3">
    <path d="M 54 252 
L 54 34.56 
" style="fill:none;stroke:#000000;stroke-linecap:square;stroke-linejoin:miter;stroke-width:0.8;"/>
   </g>
   <g id="patch_4">
    <path d="M 388.8 252 
L 388.8 34.56 
" style="fill:none;stroke:#000000;stroke-linecap:square;stroke-linejoin:miter;stroke-width:0.8;"/>
   </g>
   <g id="patch_5">
    <path d="M 54 252 
L 388.8 252 
" style="fill:none;stroke:#000000;stroke-linecap:square;stroke-linejoin:miter;stroke-width:0.8;"/>
   </g>
   <g id="patch_6">
    <path d="M 54 34.56 
L 388.8 34.56 
" style="fill:none;stroke:#000000;stroke-linecap:square;stroke-linejoin:miter;stroke-width:0.8;"/>
   </g>
   <g id="text_18">
    <!-- Vibrational wave functions of the X state of H$_2$ -->
    <defs>
     <path d="M 28.609375 0 
L 0.78125 72.90625 
L 11.078125 72.90625 
L 34.1875 11.53125 
L 57.328125 72.90625 
L 67.578125 72.90625 
L 39.796875 0 
z
" id="DejaVuSans-56"/>
     <path d="M 9.421875 54.6875 
L 18.40625 54.6875 
L 18.40625 0 
L 9.421875 0 
z
M 9.421875 75.984375 
L 18.40625 75.984375 
L 18.40625 64.59375 
L 9.421875 64.59375 
z
" id="DejaVuSans-69"/>
     <path d="M 48.6875 27.296875 
Q 48.6875 37.203125 44.609375 42.84375 
Q 40.53125 48.484375 33.40625 48.484375 
Q 26.265625 48.484375 22.1875 42.84375 
Q 18.109375 37.203125 18.109375 27.296875 
Q 18.109375 17.390625 22.1875 11.75 
Q 26.265625 6.109375 33.40625 6.109375 
Q 40.53125 6.109375 44.609375 11.75 
Q 48.6875 17.390625 48.6875 27.296875 
z
M 18.109375 46.390625 
Q 20.953125 51.265625 25.265625 53.625 
Q 29.59375 56 35.59375 56 
Q 45.5625 56 51.78125 48.09375 
Q 58.015625 40.1875 58.015625 27.296875 
Q 58.015625 14.40625 51.78125 6.484375 
Q 45.5625 -1.421875 35.59375 -1.421875 
Q 29.59375 -1.421875 25.265625 0.953125 
Q 20.953125 3.328125 18.109375 8.203125 
L 18.109375 0 
L 9.078125 0 
L 9.078125 75.984375 
L 18.109375 75.984375 
z
" id="DejaVuSans-62"/>
     <path d="M 30.609375 48.390625 
Q 23.390625 48.390625 19.1875 42.75 
Q 14.984375 37.109375 14.984375 27.296875 
Q 14.984375 17.484375 19.15625 11.84375 
Q 23.34375 6.203125 30.609375 6.203125 
Q 37.796875 6.203125 41.984375 11.859375 
Q 46.1875 17.53125 46.1875 27.296875 
Q 46.1875 37.015625 41.984375 42.703125 
Q 37.796875 48.390625 30.609375 48.390625 
z
M 30.609375 56 
Q 42.328125 56 49.015625 48.375 
Q 55.71875 40.765625 55.71875 27.296875 
Q 55.71875 13.875 49.015625 6.21875 
Q 42.328125 -1.421875 30.609375 -1.421875 
Q 18.84375 -1.421875 12.171875 6.21875 
Q 5.515625 13.875 5.515625 27.296875 
Q 5.515625 40.765625 12.171875 48.375 
Q 18.84375 56 30.609375 56 
z
" id="DejaVuSans-6f"/>
     <path d="M 9.421875 75.984375 
L 18.40625 75.984375 
L 18.40625 0 
L 9.421875 0 
z
" id="DejaVuSans-6c"/>
     <path d="M 4.203125 54.6875 
L 13.1875 54.6875 
L 24.421875 12.015625 
L 35.59375 54.6875 
L 46.1875 54.6875 
L 57.421875 12.015625 
L 68.609375 54.6875 
L 77.59375 54.6875 
L 63.28125 0 
L 52.6875 0 
L 40.921875 44.828125 
L 29.109375 0 
L 18.5 0 
z
" id="DejaVuSans-77"/>
     <path d="M 2.984375 54.6875 
L 12.5 54.6875 
L 29.59375 8.796875 
L 46.6875 54.6875 
L 56.203125 54.6875 
L 35.6875 0 
L 23.484375 0 
z
" id="DejaVuSans-76"/>
     <path d="M 37.109375 75.984375 
L 37.109375 68.5 
L 28.515625 68.5 
Q 23.6875 68.5 21.796875 66.546875 
Q 19.921875 64.59375 19.921875 59.515625 
L 19.921875 54.6875 
L 34.71875 54.6875 
L 34.71875 47.703125 
L 19.921875 47.703125 
L 19.921875 0 
L 10.890625 0 
L 10.890625 47.703125 
L 2.296875 47.703125 
L 2.296875 54.6875 
L 10.890625 54.6875 
L 10.890625 58.5 
Q 10.890625 67.625 15.140625 71.796875 
Q 19.390625 75.984375 28.609375 75.984375 
z
" id="DejaVuSans-66"/>
     <path d="M 8.5 21.578125 
L 8.5 54.6875 
L 17.484375 54.6875 
L 17.484375 21.921875 
Q 17.484375 14.15625 20.5 10.265625 
Q 23.53125 6.390625 29.59375 6.390625 
Q 36.859375 6.390625 41.078125 11.03125 
Q 45.3125 15.671875 45.3125 23.6875 
L 45.3125 54.6875 
L 54.296875 54.6875 
L 54.296875 0 
L 45.3125 0 
L 45.3125 8.40625 
Q 42.046875 3.421875 37.71875 1 
Q 33.40625 -1.421875 27.6875 -1.421875 
Q 18.265625 -1.421875 13.375 4.4375 
Q 8.5 10.296875 8.5 21.578125 
z
M 31.109375 56 
z
" id="DejaVuSans-75"/>
     <path d="M 48.78125 52.59375 
L 48.78125 44.1875 
Q 44.96875 46.296875 41.140625 47.34375 
Q 37.3125 48.390625 33.40625 48.390625 
Q 24.65625 48.390625 19.8125 42.84375 
Q 14.984375 37.3125 14.984375 27.296875 
Q 14.984375 17.28125 19.8125 11.734375 
Q 24.65625 6.203125 33.40625 6.203125 
Q 37.3125 6.203125 41.140625 7.25 
Q 44.96875 8.296875 48.78125 10.40625 
L 48.78125 2.09375 
Q 45.015625 0.34375 40.984375 -0.53125 
Q 36.96875 -1.421875 32.421875 -1.421875 
Q 20.0625 -1.421875 12.78125 6.34375 
Q 5.515625 14.109375 5.515625 27.296875 
Q 5.515625 40.671875 12.859375 48.328125 
Q 20.21875 56 33.015625 56 
Q 37.15625 56 41.109375 55.140625 
Q 45.0625 54.296875 48.78125 52.59375 
z
" id="DejaVuSans-63"/>
     <path d="M 44.28125 53.078125 
L 44.28125 44.578125 
Q 40.484375 46.53125 36.375 47.5 
Q 32.28125 48.484375 27.875 48.484375 
Q 21.1875 48.484375 17.84375 46.4375 
Q 14.5 44.390625 14.5 40.28125 
Q 14.5 37.15625 16.890625 35.375 
Q 19.28125 33.59375 26.515625 31.984375 
L 29.59375 31.296875 
Q 39.15625 29.25 43.1875 25.515625 
Q 47.21875 21.78125 47.21875 15.09375 
Q 47.21875 7.46875 41.1875 3.015625 
Q 35.15625 -1.421875 24.609375 -1.421875 
Q 20.21875 -1.421875 15.453125 -0.5625 
Q 10.6875 0.296875 5.421875 2 
L 5.421875 11.28125 
Q 10.40625 8.6875 15.234375 7.390625 
Q 20.0625 6.109375 24.8125 6.109375 
Q 31.15625 6.109375 34.5625 8.28125 
Q 37.984375 10.453125 37.984375 14.40625 
Q 37.984375 18.0625 35.515625 20.015625 
Q 33.0625 21.96875 24.703125 23.78125 
L 21.578125 24.515625 
Q 13.234375 26.265625 9.515625 29.90625 
Q 5.8125 33.546875 5.8125 39.890625 
Q 5.8125 47.609375 11.28125 51.796875 
Q 16.75 56 26.8125 56 
Q 31.78125 56 36.171875 55.265625 
Q 40.578125 54.546875 44.28125 53.078125 
z
" id="DejaVuSans-73"/>
     <path d="M 6.296875 72.90625 
L 16.890625 72.90625 
L 35.015625 45.796875 
L 53.21875 72.90625 
L 63.8125 72.90625 
L 40.375 37.890625 
L 65.375 0 
L 54.78125 0 
L 34.28125 31 
L 13.625 0 
L 2.984375 0 
L 29 38.921875 
z
" id="DejaVuSans-58"/>
     <path d="M 9.8125 72.90625 
L 19.671875 72.90625 
L 19.671875 43.015625 
L 55.515625 43.015625 
L 55.515625 72.90625 
L 65.375 72.90625 
L 65.375 0 
L 55.515625 0 
L 55.515625 34.71875 
L 19.671875 34.71875 
L 19.671875 0 
L 9.8125 0 
z
" id="DejaVuSans-48"/>
    </defs>
    <g transform="translate(81.96 28.56)scale(0.12 -0.12)">
     <use transform="translate(0 0.015625)" xlink:href="#DejaVuSans-56"/>
     <use transform="translate(68.408203 0.015625)" xlink:href="#DejaVuSans-69"/>
     <use transform="translate(96.191406 0.015625)" xlink:href="#DejaVuSans-62"/>
     <use transform="translate(159.667969 0.015625)" xlink:href="#DejaVuSans-72"/>
     <use transform="translate(200.78125 0.015625)" xlink:href="#DejaVuSans-61"/>
     <use transform="translate(262.060547 0.015625)" xlink:href="#DejaVuSans-74"/>
     <use transform="translate(301.269531 0.015625)" xlink:href="#DejaVuSans-69"/>
     <use transform="translate(329.052734 0.015625)" xlink:href="#DejaVuSans-6f"/>
     <use transform="translate(390.234375 0.015625)" xlink:href="#DejaVuSans-6e"/>
     <use transform="translate(453.613281 0.015625)" xlink:href="#DejaVuSans-61"/>
     <use transform="translate(514.892578 0.015625)" xlink:href="#DejaVuSans-6c"/>
     <use transform="translate(542.675781 0.015625)" xlink:href="#DejaVuSans-20"/>
     <use transform="translate(574.462891 0.015625)" xlink:href="#DejaVuSans-77"/>
     <use transform="translate(656.25 0.015625)" xlink:href="#DejaVuSans-61"/>
     <use transform="translate(717.529297 0.015625)" xlink:href="#DejaVuSans-76"/>
     <use transform="translate(776.708984 0.015625)" xlink:href="#DejaVuSans-65"/>
     <use transform="translate(838.232422 0.015625)" xlink:href="#DejaVuSans-20"/>
     <use transform="translate(870.019531 0.015625)" xlink:href="#DejaVuSans-66"/>
     <use transform="translate(905.224609 0.015625)" xlink:href="#DejaVuSans-75"/>
     <use transform="translate(968.603516 0.015625)" xlink:href="#DejaVuSans-6e"/>
     <use transform="translate(1031.982422 0.015625)" xlink:href="#DejaVuSans-63"/>
     <use transform="translate(1086.962891 0.015625)" xlink:href="#DejaVuSans-74"/>
     <use transform="translate(1126.171875 0.015625)" xlink:href="#DejaVuSans-69"/>
     <use transform="translate(1153.955078 0.015625)" xlink:href="#DejaVuSans-6f"/>
     <use transform="translate(1215.136719 0.015625)" xlink:href="#DejaVuSans-6e"/>
     <use transform="translate(1278.515625 0.015625)" xlink:href="#DejaVuSans-73"/>
     <use transform="translate(1330.615234 0.015625)" xlink:href="#DejaVuSans-20"/>
     <use transform="translate(1362.402344 0.015625)" xlink:href="#DejaVuSans-6f"/>
     <use transform="translate(1423.583984 0.015625)" xlink:href="#DejaVuSans-66"/>
     <use transform="translate(1458.789062 0.015625)" xlink:href="#DejaVuSans-20"/>
     <use transform="translate(1490.576172 0.015625)" xlink:href="#DejaVuSans-74"/>
     <use transform="translate(1529.785156 0.015625)" xlink:href="#DejaVuSans-68"/>
     <use transform="translate(1593.164062 0.015625)" xlink:href="#DejaVuSans-65"/>
     <use transform="translate(1654.6875 0.015625)" xlink:href="#DejaVuSans-20"/>
     <use transform="translate(1686.474609 0.015625)" xlink:href="#DejaVuSans-58"/>
     <use transform="translate(1754.980469 0.015625)" xlink:href="#DejaVuSans-20"/>
     <use transform="translate(1786.767578 0.015625)" xlink:href="#DejaVuSans-73"/>
     <use transform="translate(1838.867188 0.015625)" xlink:href="#DejaVuSans-74"/>
     <use transform="translate(1878.076172 0.015625)" xlink:href="#DejaVuSans-61"/>
     <use transform="translate(1939.355469 0.015625)" xlink:href="#DejaVuSans-74"/>
     <use transform="translate(1978.564453 0.015625)" xlink:href="#DejaVuSans-65"/>
     <use transform="translate(2040.087891 0.015625)" xlink:href="#DejaVuSans-20"/>
     <use transform="translate(2071.875 0.015625)" xlink:href="#DejaVuSans-6f"/>
     <use transform="translate(2133.056641 0.015625)" xlink:href="#DejaVuSans-66"/>
     <use transform="translate(2168.261719 0.015625)" xlink:href="#DejaVuSans-20"/>
     <use transform="translate(2200.048828 0.015625)" xlink:href="#DejaVuSans-48"/>
     <use transform="translate(2276.201172 -16.390625)scale(0.7)" xlink:href="#DejaVuSans-32"/>
    </g>
   </g>
  </g>
 </g>
 <defs>
  <clipPath id="p3c9b032d0d">
   <rect height="217.44" width="334.8" x="54" y="34.56"/>
  </clipPath>
 </defs>
</svg>
